<svg width="134" height="135" xmlns="http://www.w3.org/2000/svg" fill="none">

 <g>
  <title>Layer 1</title>
  <circle id="svg_1" fill="#590D56" r="67" cy="67.0076" cx="67"/>
  <g>
   <path stroke="white" d="m78.33162,14.01361l0.1584,0.10132l0.1859,-0.02814l13.3003,-2.01337l7.4035,11.23131l0.1035,0.157l0.1813,0.0499l12.9695,3.5704l2.195,13.2716l0.031,0.1855l0.145,0.1193l10.396,8.5369l-3.393,13.0171l-0.047,0.1819l0.084,0.1681l6.025,12.0273l-8.394,10.5118l-0.117,0.1469l0.008,0.1878l0.613,13.438l-11.944,6.1889l-0.167,0.0865l-0.069,0.1751l-4.9062,12.5247l-13.4283,0.796l-0.1877,0.011l-0.1339,0.133l-9.5768,9.446l-12.5911,-4.735l-0.176,-0.066l-0.176,0.066l-12.5911,4.735l-9.5768,-9.446l-0.1339,-0.133l-0.1877,-0.011l-13.4283,-0.796l-4.9066,-12.5247l-0.0685,-0.1751l-0.167,-0.0865l-11.94364,-6.1889l0.61207,-13.438l0.00855,-0.1878l-0.11731,-0.1469l-8.39382,-10.5118l6.02487,-12.0273l0.08421,-0.1681l-0.04742,-0.1819l-3.39261,-13.0171l10.3959,-8.5369l0.1453,-0.1193l0.0307,-0.1855l2.1952,-13.2716l12.9694,-3.5704l0.1813,-0.0499l0.1035,-0.157l7.4034,-11.23131l13.3004,2.01337l0.1859,0.02814l0.1584,-0.10132l11.3316,-7.24905l11.3316,7.24905z"/>
  </g>
 </g>
</svg>